# xmcd CD database file
#
# Track frame offsets:
#	150
#	14850
#	30892
#	44112
#	57215
#	72985
#	85350
#	97340
#	110167
#	126655
#	137395
#	151277
#	161167
#	180067
#	193402
#	208117
#	219962
#	228965
#	244565
#	254180
#	270430
#	282960
#	300355
#	313862
#
# Disc length: 4327 seconds
#
# Revision: 2
# Processed by: cddbd v1.5.2PL0 Copyright (c) Steve Scherf et al.
# Submitted via: CDex 1.51
#
DISCID=6810e518
DTITLE=Ray Charles - The Tender Side Of Ray Charles
DYEAR=1987
DGENRE=R&B
TTITLE0=Born To Lose
TTITLE1=Your Cheating Heart
TTITLE2=Take This Chains From My Heart
TTITLE3=Worried Mind
TTITLE4=You Win Again
TTITLE5=A Tear Fell
TTITLE6=Together Again
TTITLE7=Making Believe
TTITLE8=Georgia On My Mind
TTITLE9=Come Live With Me (And Be My Love)
TTITLE10=Moonlight in Vermont
TTITLE11=Teardrops In My Heart
TTITLE12=I Can't Stop Loving You
TTITLE13=Crying Time
TTITLE14=You Don't Know Me
TTITLE15=Till The End Of Time 
TTITLE16=Hit the Road Jack
TTITLE17=Half As Much 
TTITLE18=Busted
TTITLE19=America The Beautiful 
TTITLE20=Yesterday 
TTITLE21=Ruby 
TTITLE22=Blue Hawaii 
TTITLE23=Chattanooga Choo-Choo
EXTD=YEAR: 1987
EXTT0=
EXTT1=
EXTT2=
EXTT3=
EXTT4=
EXTT5=
EXTT6=
EXTT7=
EXTT8=
EXTT9=
EXTT10=
EXTT11=
EXTT12=
EXTT13=
EXTT14=
EXTT15=
EXTT16=
EXTT17=
EXTT18=
EXTT19=
EXTT20=
EXTT21=
EXTT22=
EXTT23=
PLAYORDER=
